<?xml version="1.0" encoding="utf-8"?>
<!-- Generator: Adobe Illustrator 21.0.0, SVG Export Plug-In . SVG Version: 6.00 Build 0)  -->
<svg version="1.1" id="Layer_1" xmlns="http://www.w3.org/2000/svg" xmlns:xlink="http://www.w3.org/1999/xlink" x="0px" y="0px"
	 viewBox="0 0 986 1393" style="enable-background:new 0 0 986 1393;" xml:space="preserve">
<style type="text/css">
	.st0{fill:#84C346;}
	.st1{fill-rule:evenodd;clip-rule:evenodd;fill:#84C346;}
	.st2{fill:#4B2564;}
	.st3{fill:#FFFFFF;}
	.st4{fill:#E6E7E8;}
	.st5{fill:#0E1520;}
	.st6{fill:#121721;}
	.st7{fill:#221E1F;}
	.st8{fill:#8F1A1D;}
	.st9{fill:#911B1F;}
</style>
<g>
	<polygon class="st0" points="113.6,78.6 113.6,78.6 113.6,69.1 107.6,69.1 107.6,92.2 113.6,92.2 113.6,82.2 113.6,82.2 
		121.4,92.2 129.1,92.2 119.1,80 128.3,69.1 120.9,69.1 113.6,78.6 	"/>
	<polygon class="st0" points="145.8,74.2 145.8,69.1 132.7,69.1 132.7,92.2 145.8,92.2 145.8,87.1 138.7,87.1 138.7,83.1 
		145.4,83.1 145.4,78 138.7,78 138.7,74.2 145.8,74.2 	"/>
	<polygon class="st0" points="157.3,81.1 157.3,92.2 163.3,92.2 163.3,81.1 171.9,69.1 164.7,69.1 160.3,75.4 156,69.1 148.8,69.1 
		157.3,81.1 	"/>
	<path class="st0" d="M202.6,70.4c-2.1-1.2-4.9-1.9-7.2-1.9c-4.6,0-8,3.1-8,7.7c0,4.5,2.5,5.4,6.2,6.5c1.3,0.4,3.6,0.9,3.6,2.6
		c0,1.6-1.5,2.3-2.9,2.3c-2.1,0-3.8-1.1-5.3-2.4l-2.6,4.8c2.4,1.7,5.2,2.6,8.1,2.6c2.3,0,4.7-0.6,6.5-2.2c1.8-1.6,2.4-3.9,2.4-6.2
		c0-3.7-2.5-5.4-5.7-6.3l-1.5-0.5c-1-0.3-2.7-0.9-2.7-2.2c0-1.3,1.5-1.9,2.6-1.9c1.5,0,2.9,0.6,4,1.5L202.6,70.4L202.6,70.4z"/>
	<polygon class="st0" points="217.4,74.2 222.4,74.2 222.4,69.1 206.5,69.1 206.5,74.2 211.4,74.2 211.4,92.2 217.4,92.2 
		217.4,74.2 	"/>
	<path class="st1" d="M238.8,88.2l1.5,4h6.4L238,69.1h-6.5l-8.9,23.1h6.4l1.6-4H238.8L238.8,88.2z M237.1,83.6h-5l2.5-7.3h0.1
		L237.1,83.6L237.1,83.6z"/>
	<path class="st1" d="M262.4,82.7c3.3-0.6,5.1-3.3,5.1-6.5c0-4.9-3.5-7.1-8-7.1h-9v23.1h6v-8.9h0.1l5.7,8.9h7.5L262.4,82.7
		L262.4,82.7z M256.4,73.7h0.6c2,0,4.2,0.4,4.2,2.9c0,2.5-2.2,2.9-4.2,2.9h-0.6V73.7L256.4,73.7z"/>
	<polygon class="st0" points="282.3,74.2 287.3,74.2 287.3,69.1 271.3,69.1 271.3,74.2 276.3,74.2 276.3,92.2 282.3,92.2 
		282.3,74.2 	"/>
	<polygon class="st2" points="100.7,63.7 100.7,116.1 26.8,116.1 26.8,63.7 0,63.7 63.7,0 127.4,63.7 100.7,63.7 	"/>
	<polygon class="st3" points="71,72.4 71,116.3 58.6,116.3 51,108.7 56.5,103.2 51,97.8 56.5,92.3 51,86.8 59,78.9 59,72.4 
		50.4,63.8 50.4,51.8 58.9,43.2 71,43.2 79.5,51.8 79.5,63.8 71,72.4 71,72.4 	"/>
	<path class="st2" d="M61,52c0-2,1.6-3.6,3.6-3.6c2,0,3.6,1.6,3.6,3.6c0,2-1.6,3.6-3.6,3.6C62.7,55.7,61,54,61,52L61,52z"/>
	<polygon class="st2" points="107.5,99.1 287.3,99.1 287.3,97.8 107.5,97.8 107.5,99.1 	"/>
	<path class="st4" d="M207.7,113.2c-0.2-0.2-0.4-0.5-0.8-0.5c-0.1,0-0.2,0-0.4,0.1c0.3-0.7,0.5-1.5,1.4-1.6
		C207.8,112.2,208.4,112.7,207.7,113.2L207.7,113.2z"/>
	<path class="st5" d="M136.8,111.2c0-0.9-0.2-1.6-0.7-2c-0.5-0.5-1.3-0.7-2.5-0.7H131v6h2.2c1.3,0,2.2-0.3,2.8-1
		C136.5,113,136.8,112.2,136.8,111.2L136.8,111.2z M138.8,111.1c0,1.3-0.5,2.4-1.4,3.2c-1,0.9-2.5,1.4-4.5,1.4h-3.8v-8.6h5
		c1.5,0,2.6,0.3,3.3,0.9C138.3,108.7,138.8,109.7,138.8,111.1L138.8,111.1z"/>
	<path class="st6" d="M136.8,111.2h0.2c0-0.9-0.2-1.6-0.7-2.1c-0.5-0.5-1.4-0.8-2.7-0.8h-2.7v6.3h2.4c1.3,0,2.3-0.3,2.9-1v0
		c0.5-0.6,0.8-1.4,0.8-2.4h-0.3c0,0.9-0.2,1.7-0.7,2.2c-0.6,0.6-1.4,0.9-2.7,0.9h-2v-5.6h2.4c1.2,0,2,0.2,2.4,0.7v0
		c0.4,0.4,0.6,1,0.6,1.9H136.8L136.8,111.2z M138.8,111.1h-0.2c0,1.3-0.4,2.3-1.3,3.1c-1,0.9-2.5,1.3-4.4,1.3h-3.6v-8.3h4.8
		c1.4,0,2.5,0.3,3.2,0.8c0.8,0.6,1.3,1.6,1.3,3h0.3c0-1.5-0.5-2.6-1.4-3.2c-0.8-0.6-2-0.9-3.4-0.9h-5.2v8.9h3.9c2,0,3.6-0.5,4.6-1.4
		c0.9-0.8,1.4-2,1.4-3.3H138.8L138.8,111.1z"/>
	<path class="st5" d="M146.8,112.1l-1.8-4.2l-1.8,4.2L146.8,112.1L146.8,112.1z M150.2,115.7h-2l-1-2.3h-4.6l-1,2.3h-2l3.8-8.6h3
		L150.2,115.7L150.2,115.7z"/>
	<path class="st6" d="M146.8,112.1l0.1-0.1l-1.9-4.6l-2,4.8l4.1,0l-0.1-0.2L146.8,112.1V112l-3.3,0l1.6-3.7l1.6,3.9L146.8,112.1V112
		V112.1L146.8,112.1z M150.2,115.7v-0.2h-1.9l-1-2.3h-4.8l-1,2.3l-1.6,0l3.6-8.3h2.8l3.7,8.5L150.2,115.7v-0.2V115.7l0.1-0.1
		l-3.8-8.7h-3.2l-3.9,8.9l2.3,0l1-2.3h4.4l1,2.3h2.3l-0.1-0.2L150.2,115.7L150.2,115.7z"/>
	<polygon class="st5" points="161.2,107.1 157.2,115.7 154.6,115.7 150.7,107.1 152.7,107.1 155.9,114.4 159.2,107.1 161.2,107.1 	
		"/>
	<polygon class="st6" points="161.2,107.1 161.1,107.1 157.1,115.6 154.7,115.6 150.9,107.3 152.6,107.3 155.9,114.8 159.3,107.3 
		161.2,107.3 161.2,107.1 161.1,107.1 161.2,107.1 161.2,107 159.1,107 155.9,114 152.8,107 150.4,107 154.5,115.9 157.3,115.9 
		161.5,107 161.2,107 161.2,107.1 	"/>
	<polygon class="st5" points="162.7,115.7 164.7,115.7 164.7,107.1 162.7,107.1 162.7,115.7 	"/>
	<polygon class="st6" points="164.7,115.7 164.7,115.6 162.9,115.6 162.9,107.3 164.5,107.3 164.5,115.7 164.7,115.7 164.7,115.6 
		164.7,115.7 164.8,115.7 164.8,107 162.6,107 162.6,115.9 164.8,115.9 164.8,115.7 164.7,115.7 	"/>
	<path class="st5" d="M175.1,111.2c0-0.9-0.2-1.6-0.7-2c-0.5-0.5-1.3-0.7-2.5-0.7h-2.5v6h2.2c1.3,0,2.2-0.3,2.8-1
		C174.9,113,175.1,112.2,175.1,111.2L175.1,111.2z M177.1,111.1c0,1.3-0.5,2.4-1.4,3.2c-1,0.9-2.5,1.4-4.5,1.4h-3.8v-8.6h5
		c1.5,0,2.6,0.3,3.3,0.9C176.6,108.7,177.1,109.7,177.1,111.1L177.1,111.1z"/>
	<path class="st6" d="M175.1,111.2h0.2c0-0.9-0.2-1.6-0.7-2.1c-0.5-0.5-1.4-0.8-2.7-0.8h-2.7v6.3h2.4c1.3,0,2.3-0.3,2.9-1v0
		c0.5-0.6,0.8-1.4,0.8-2.4H175c0,0.9-0.2,1.7-0.7,2.2h0c-0.6,0.6-1.5,0.9-2.7,0.9h-2v-5.6h2.4c1.2,0,2,0.2,2.4,0.7
		c0.4,0.4,0.6,1,0.6,1.9H175.1L175.1,111.2z M177.1,111.1h-0.2c0,1.3-0.4,2.3-1.3,3.1c-1,0.9-2.5,1.3-4.4,1.3h-3.6v-8.3h4.8
		c1.4,0,2.5,0.3,3.2,0.8c0.8,0.6,1.3,1.6,1.3,3h0.3c0-1.5-0.5-2.6-1.4-3.2c-0.8-0.6-2-0.9-3.4-0.9h-5.2v8.9h3.9c2,0,3.6-0.5,4.6-1.4
		c0.9-0.8,1.4-2,1.4-3.3H177.1L177.1,111.1z"/>
	<polygon class="st5" points="195.6,115.7 193.6,115.7 193.6,108.3 190.6,115.7 188.8,115.7 185.8,108.3 185.8,115.7 183.8,115.7 
		183.8,107.1 187.1,107.1 189.7,113.6 192.4,107.1 195.6,107.1 195.6,115.7 	"/>
	<polygon class="st6" points="195.6,115.7 195.6,115.6 193.8,115.6 193.8,108.3 193.5,108.3 190.5,115.6 188.9,115.6 185.9,108.3 
		185.6,108.3 185.6,115.6 184,115.6 184,107.3 187,107.3 189.7,114 192.5,107.3 195.4,107.3 195.4,115.7 195.6,115.7 195.6,115.6 
		195.6,115.7 195.7,115.7 195.7,107 192.3,107 189.7,113.2 187.2,107 183.7,107 183.7,115.9 185.9,115.9 185.9,109.1 188.7,115.9 
		190.7,115.9 193.5,109.1 193.5,115.9 195.7,115.9 195.7,115.7 195.6,115.7 	"/>
	<path class="st5" d="M205.4,114.7c-0.4,0.4-0.8,0.7-1.4,0.9c-0.5,0.2-1.1,0.3-1.7,0.3c-1.5,0-2.7-0.4-3.5-1.1c-0.7-0.7-1-1.6-1-2.8
		c0-1.1,0.3-2,1-2.6c0.8-0.7,1.9-1,3.5-1c0.6,0,1.1,0.1,1.7,0.2c0.5,0.1,1,0.4,1.5,0.7l0,1.6c-0.4-0.4-0.9-0.7-1.3-0.9
		c-0.5-0.2-1-0.3-1.7-0.3c-1,0-1.7,0.2-2.2,0.7c-0.4,0.4-0.7,1-0.7,1.7c0,0.8,0.2,1.5,0.6,1.9c0.5,0.5,1.2,0.8,2.2,0.8
		c0.7,0,1.3-0.1,1.8-0.4c0.5-0.3,0.9-0.6,1.2-1.1L205.4,114.7L205.4,114.7z"/>
	<path class="st7" d="M205.4,114.7l-0.1-0.1c-0.3,0.4-0.8,0.7-1.4,0.9c-0.5,0.2-1.1,0.3-1.6,0.3c-1.5,0-2.6-0.4-3.4-1.1
		c-0.7-0.6-1-1.5-1-2.6c0-1.1,0.3-1.9,1-2.5c0.7-0.6,1.8-1,3.4-1c0.6,0,1.1,0.1,1.6,0.2c0.5,0.1,1,0.3,1.4,0.7l0.1-0.1l-0.2,0l0,1.6
		h0.2l0.1-0.1c-0.4-0.4-0.9-0.7-1.4-0.9c-0.5-0.2-1.1-0.3-1.8-0.3c-1,0-1.8,0.2-2.3,0.7c-0.5,0.4-0.7,1-0.7,1.8c0,0.8,0.2,1.5,0.7,2
		c0.5,0.6,1.3,0.8,2.3,0.8c0.7,0,1.4-0.1,1.9-0.4c0.5-0.3,1-0.7,1.2-1.2l-0.1-0.1l-0.2,0l0,1.5L205.4,114.7l-0.1-0.1L205.4,114.7
		h0.2l0-2.1l-0.3,0.5c-0.3,0.4-0.6,0.8-1.1,1c-0.5,0.3-1.1,0.4-1.8,0.4c-1,0-1.6-0.2-2.1-0.7c-0.4-0.4-0.6-1-0.6-1.8
		c0-0.7,0.2-1.2,0.6-1.6c0.4-0.4,1.1-0.6,2.1-0.6c0.7,0,1.2,0.1,1.6,0.3c0.4,0.2,0.9,0.5,1.3,0.9l0.3,0.2l0-2l-0.1,0
		c-0.5-0.3-1-0.6-1.5-0.7v0c-0.5-0.1-1.1-0.2-1.7-0.2c-1.6,0-2.8,0.3-3.6,1.1c-0.7,0.7-1.1,1.6-1.1,2.7c0,1.2,0.4,2.2,1.1,2.9
		c0.8,0.8,2,1.2,3.6,1.2c0.6,0,1.2-0.1,1.7-0.3c0.6-0.2,1.1-0.5,1.5-1l0,0l0-0.1H205.4L205.4,114.7z"/>
	<path class="st6" d="M205.4,114.7l-0.1-0.1c-0.3,0.4-0.8,0.7-1.4,0.9c-0.5,0.2-1.1,0.3-1.6,0.3c-1.5,0-2.6-0.4-3.4-1.1
		c-0.7-0.6-1-1.5-1-2.6c0-1.1,0.3-1.9,1-2.5c0.7-0.6,1.8-1,3.4-1c0.6,0,1.1,0.1,1.6,0.2c0.5,0.1,1,0.3,1.4,0.7l0.1-0.1l-0.2,0l0,1.6
		h0.2l0.1-0.1c-0.4-0.4-0.9-0.7-1.4-0.9c-0.5-0.2-1.1-0.3-1.8-0.3c-1,0-1.8,0.2-2.3,0.7c-0.5,0.4-0.7,1-0.7,1.8c0,0.8,0.2,1.5,0.7,2
		c0.5,0.6,1.3,0.8,2.3,0.8c0.7,0,1.4-0.1,1.9-0.4c0.5-0.3,1-0.7,1.2-1.2l-0.1-0.1l-0.2,0l0,1.5L205.4,114.7l-0.1-0.1L205.4,114.7
		h0.2l0-2.1l-0.3,0.5c-0.3,0.4-0.6,0.8-1.1,1c-0.5,0.3-1.1,0.4-1.8,0.4c-1,0-1.6-0.2-2.1-0.7c-0.4-0.4-0.6-1-0.6-1.8
		c0-0.7,0.2-1.2,0.6-1.6c0.4-0.4,1.1-0.6,2.1-0.6c0.7,0,1.2,0.1,1.6,0.3c0.4,0.2,0.9,0.5,1.3,0.9l0.3,0.2l0-2l-0.1,0
		c-0.5-0.3-1-0.6-1.5-0.7v0c-0.5-0.1-1.1-0.2-1.7-0.2c-1.6,0-2.8,0.3-3.6,1.1c-0.7,0.7-1.1,1.6-1.1,2.7c0,1.2,0.4,2.2,1.1,2.9
		c0.8,0.8,2,1.2,3.6,1.2c0.6,0,1.2-0.1,1.7-0.3c0.6-0.2,1.1-0.5,1.5-1l0,0l0-0.1H205.4L205.4,114.7z"/>
	<path class="st5" d="M216,114.7c-0.6,0.4-1.2,0.7-2,0.9c-0.6,0.2-1.3,0.2-1.9,0.2c-1.8,0-3.2-0.5-4.1-1.4c-0.7-0.8-1.1-1.9-1.1-3.3
		c0-1.2,0.4-2.2,1.2-2.9c0.9-0.8,2.2-1.2,3.9-1.2c0.9,0,1.7,0.1,2.4,0.3c0.6,0.2,1.1,0.4,1.5,0.7l0,1.9l-0.1,0
		c-0.3-0.5-0.8-0.8-1.4-1.1c-0.6-0.3-1.4-0.4-2.4-0.4c-1,0-1.8,0.2-2.4,0.7c-0.6,0.5-0.9,1.3-0.9,2.3c0,0.9,0.3,1.7,0.9,2.3
		c0.6,0.6,1.4,0.9,2.4,0.9c0.9,0,1.7-0.2,2.3-0.5c0.6-0.3,1.1-0.7,1.5-1.3L216,114.7L216,114.7z"/>
	<path class="st6" d="M216,114.7l-0.1-0.1c-0.5,0.4-1.2,0.7-2,0.9c-0.6,0.2-1.2,0.2-1.9,0.2c-1.8,0-3.1-0.5-4-1.4
		c-0.7-0.8-1.1-1.8-1.1-3.2c0-1.2,0.4-2.1,1.2-2.8c0.9-0.8,2.1-1.2,3.8-1.2c0.9,0,1.7,0.1,2.4,0.3c0.6,0.2,1.1,0.4,1.5,0.7l0.1-0.1
		l-0.2,0l0,1.9h0.2l0-0.2l-0.1,0l0,0.2l0.1-0.1c-0.4-0.5-0.9-0.9-1.5-1.1c-0.7-0.3-1.5-0.4-2.4-0.4c-1,0-1.9,0.2-2.5,0.8
		c-0.7,0.5-1,1.4-1,2.4c0,1,0.3,1.8,0.9,2.4c0.6,0.6,1.5,0.9,2.5,0.9c0.9,0,1.7-0.2,2.4-0.5l-0.1-0.1l0.1,0.1
		c0.6-0.3,1.1-0.7,1.6-1.3l-0.1-0.1l-0.2,0l0,1.8L216,114.7l-0.1-0.1L216,114.7h0.2l0-2.2l-0.3,0.3c-0.5,0.6-1,1-1.5,1.2l0,0
		c-0.6,0.3-1.3,0.4-2.2,0.4c-1,0-1.8-0.3-2.3-0.8c-0.5-0.6-0.8-1.3-0.8-2.2c0-1,0.3-1.7,0.9-2.2c0.5-0.4,1.3-0.7,2.3-0.7
		c0.9,0,1.7,0.1,2.3,0.4c0.6,0.2,1,0.6,1.3,1l0,0l0.1,0l0.2,0.1l0-2.1l-0.1-0.1c-0.4-0.3-0.9-0.6-1.6-0.8c-0.8-0.2-1.6-0.3-2.5-0.3
		c-1.7,0-3.1,0.4-4,1.3c-0.9,0.8-1.3,1.8-1.3,3.1c0,1.4,0.4,2.5,1.1,3.4c0.9,1,2.3,1.5,4.2,1.5c0.7,0,1.3-0.1,2-0.2
		c0.8-0.2,1.5-0.5,2.1-0.9l0.1,0v-0.1H216L216,114.7z"/>
	<path class="st5" d="M226.2,111.3c0-0.9-0.2-1.6-0.6-2c-0.5-0.6-1.4-0.9-2.6-0.9c-1.2,0-2,0.3-2.6,0.9c-0.4,0.5-0.6,1.2-0.6,2
		c0,0.9,0.2,1.7,0.6,2.2c0.5,0.7,1.4,1.1,2.6,1.1c1.2,0,2-0.4,2.6-1.1C226,113,226.2,112.3,226.2,111.3L226.2,111.3z M228.2,111.2
		c0,1.4-0.4,2.4-1.1,3.3c-0.9,1-2.2,1.5-4.1,1.5c-1.8,0-3.2-0.5-4.1-1.4c-0.7-0.8-1.1-1.9-1.1-3.3c0-1.2,0.4-2.2,1.2-2.9
		c0.9-0.8,2.2-1.2,3.9-1.2c1.7,0,3,0.4,3.9,1.2C227.8,109,228.2,109.9,228.2,111.2L228.2,111.2z"/>
	<path class="st6" d="M226.2,111.3h0.2c0-0.9-0.2-1.6-0.7-2.1c-0.6-0.6-1.5-0.9-2.7-0.9c-1.2,0-2.1,0.3-2.7,0.9
		c-0.5,0.5-0.7,1.2-0.7,2.1c0,0.9,0.2,1.7,0.6,2.3c0.6,0.8,1.5,1.1,2.7,1.1c1.2,0,2.1-0.4,2.7-1.1c0.4-0.6,0.6-1.4,0.6-2.3H226
		c0,0.9-0.2,1.6-0.6,2.1c-0.5,0.7-1.3,1-2.4,1c-1.2,0-2-0.3-2.5-1c-0.4-0.5-0.6-1.2-0.6-2.1c0-0.8,0.2-1.5,0.6-1.9
		c0.5-0.5,1.3-0.8,2.4-0.8c1.2,0,2,0.3,2.4,0.8c0.4,0.4,0.6,1.1,0.6,1.9H226.2L226.2,111.3z M228.2,111.2H228c0,1.3-0.4,2.4-1.1,3.1
		c-0.8,0.9-2.1,1.4-3.9,1.4c-1.8,0-3.1-0.5-4-1.4c-0.7-0.8-1.1-1.8-1.1-3.2c0-1.2,0.4-2.1,1.2-2.8c0.9-0.8,2.1-1.2,3.8-1.2
		c1.7,0,2.9,0.4,3.8,1.2c0.8,0.7,1.2,1.7,1.2,2.8h0.3c0-1.3-0.4-2.3-1.3-3.1c-0.9-0.9-2.3-1.3-4-1.3c-1.7,0-3.1,0.4-4,1.3
		c-0.9,0.8-1.3,1.8-1.3,3.1c0,1.4,0.4,2.5,1.1,3.4c0.9,1,2.3,1.5,4.2,1.5c1.9,0,3.3-0.5,4.2-1.5c0.8-0.8,1.1-2,1.1-3.4H228.2
		L228.2,111.2z"/>
	<polygon class="st5" points="238.8,107.1 234.9,112.5 234.9,115.7 233,115.7 233,112.5 229.1,107.1 231.2,107.1 233.9,111.2 
		236.6,107.1 238.8,107.1 	"/>
	<polygon class="st6" points="238.8,107.1 238.6,107.1 234.8,112.4 234.8,115.6 233.1,115.6 233.1,112.4 229.5,107.3 231.1,107.3 
		233.9,111.5 236.7,107.3 238.8,107.3 238.8,107.1 238.6,107.1 238.8,107.1 238.8,107 236.6,107 233.9,110.9 231.3,107 228.8,107 
		232.8,112.5 232.8,115.9 235.1,115.9 235.1,112.5 239.1,107 238.8,107 238.8,107.1 	"/>
	<path class="st8" d="M251.3,115.9h-3.8v-0.3h0.2c0.6,0,1-0.2,1.1-0.6c0-0.1,0-0.3,0-0.8v-2.7c0-0.6,0-1,0-1.2
		c-0.1-0.5-0.2-0.9-0.5-1.1c-0.2-0.1-0.4-0.2-0.7-0.2c-0.6,0-1.2,0.4-1.9,1.1v4.1c0,0.4,0,0.7,0,0.7c0,0.3,0.2,0.5,0.4,0.6
		c0.2,0.1,0.4,0.1,0.8,0.1v0.3H243v-0.3c0.3,0,0.6-0.1,0.8-0.2c0.2-0.1,0.4-0.6,0.4-1.3v-7c0-1.2-0.1-1.9-0.3-2
		c-0.1-0.1-0.2-0.1-0.4-0.1c-0.1,0-0.3,0-0.6,0.1l-0.1-0.3l2.3-1h0.4v5.6c0.5-0.5,0.9-0.9,1.1-1.1c0.5-0.3,1-0.5,1.4-0.5
		c0.9,0,1.5,0.5,1.8,1.5c0.1,0.4,0.2,1,0.2,2v2.7c0,0.5,0,0.8,0.1,1c0.1,0.3,0.5,0.4,1,0.4V115.9L251.3,115.9z"/>
	<path class="st9" d="M251.3,115.9v-0.2h-3.6v-0.2h-0.2v0.2h0.2c0.3,0,0.6-0.1,0.8-0.2c0.2-0.1,0.4-0.3,0.4-0.6c0-0.1,0-0.1,0-0.3
		c0-0.1,0-0.3,0-0.5v-2.7c0-0.6,0-1,0-1.2v0c-0.1-0.5-0.3-0.9-0.6-1.2h0v0c-0.2-0.1-0.5-0.2-0.8-0.2c-0.7,0-1.3,0.4-2.1,1.2l0,0v4.1
		c0,0.4,0,0.7,0,0.8l0.2,0l-0.2,0c0.1,0.3,0.2,0.5,0.5,0.7l0.1-0.1l-0.1,0.1c0.2,0.1,0.5,0.2,0.9,0.2v-0.2h-0.2v0.2h-3.5v-0.2H243
		v0.2c0.4,0,0.6-0.1,0.9-0.2c0.2-0.1,0.3-0.3,0.4-0.5c0.1-0.2,0.1-0.5,0.1-0.9v-7c0-0.6,0-1.1-0.1-1.4c-0.1-0.4-0.1-0.6-0.2-0.7v0h0
		c-0.1-0.1-0.3-0.1-0.5-0.1c-0.2,0-0.4,0.1-0.6,0.1l0.1,0.2l0.1-0.1l-0.1-0.1l2.1-0.9h0.2v5.9l0.3-0.3c0.5-0.5,0.8-0.9,1.1-1.1
		c0.5-0.3,0.9-0.5,1.4-0.5c0.4,0,0.8,0.1,1.1,0.3c0.3,0.2,0.5,0.6,0.6,1c0.1,0.3,0.2,1,0.2,1.9v2.7c0,0.5,0,0.8,0.1,1.1
		c0.1,0.2,0.2,0.3,0.4,0.4c0.2,0.1,0.4,0.1,0.7,0.1v-0.2h-0.2v0.3H251.3v-0.2V115.9h0.2v-0.5h-0.2c-0.3,0-0.5,0-0.6-0.1
		c-0.1-0.1-0.2-0.1-0.3-0.2c-0.1-0.1-0.1-0.5-0.1-0.9v-2.7c0-1-0.1-1.6-0.2-2c-0.2-0.5-0.4-0.9-0.7-1.2c-0.3-0.3-0.8-0.4-1.3-0.4
		c-0.5,0-1,0.2-1.5,0.6c-0.3,0.2-0.7,0.6-1.2,1.1l0.1,0.1h0.2v-5.8h-0.6l-2.5,1l0.2,0.4l0.1,0.1l0.1,0c0.3-0.1,0.4-0.1,0.5-0.1
		c0.1,0,0.2,0,0.3,0.1l0.1-0.1l-0.1,0.1c0,0,0.1,0.2,0.1,0.5c0,0.3,0.1,0.8,0.1,1.4v7c0,0.4,0,0.6-0.1,0.8c-0.1,0.2-0.1,0.3-0.2,0.3
		c-0.2,0.1-0.4,0.1-0.7,0.1h-0.2v0.6h4.1v-0.6h-0.2c-0.4,0-0.6,0-0.8-0.1l0,0h0c-0.2-0.1-0.3-0.2-0.3-0.5v0c0-0.1,0-0.3,0-0.7v-4.1
		h-0.2l0.1,0.1c0.7-0.7,1.3-1.1,1.8-1.1c0.3,0,0.4,0.1,0.6,0.2l0.1-0.1l-0.1,0.1c0.2,0.2,0.4,0.5,0.5,0.9l0.2,0l-0.2,0
		c0,0.2,0,0.6,0,1.2v2.7c0,0.2,0,0.4,0,0.5c0,0.1,0,0.2,0,0.2c0,0.2-0.1,0.3-0.3,0.4c-0.1,0.1-0.3,0.1-0.6,0.1h-0.3v0.6h4.1v-0.2
		H251.3L251.3,115.9z"/>
	<path class="st8" d="M257.8,112.5c0-1.4-0.3-2.4-0.9-3.2c-0.4-0.5-0.9-0.8-1.5-0.8c-0.8,0-1.3,0.4-1.6,1.2c-0.2,0.4-0.3,1-0.3,1.7
		c0,1,0.2,1.8,0.5,2.6c0.4,1,1.1,1.5,1.9,1.5C257.2,115.5,257.8,114.5,257.8,112.5L257.8,112.5z M259.4,111.9c0,0.7-0.2,1.4-0.5,2.1
		c-0.3,0.7-0.8,1.3-1.4,1.6c-0.6,0.4-1.2,0.5-1.9,0.5c-1.2,0-2.1-0.5-2.8-1.4c-0.6-0.8-0.9-1.7-0.9-2.6c0-0.7,0.2-1.4,0.5-2.1
		c0.4-0.7,0.8-1.2,1.4-1.6c0.6-0.3,1.2-0.5,1.8-0.5c1.2,0,2.1,0.4,2.8,1.3C259.1,110,259.4,110.9,259.4,111.9L259.4,111.9z"/>
	<path class="st9" d="M257.8,112.5h0.2c0-1.4-0.3-2.5-0.9-3.3c-0.4-0.6-1-0.9-1.7-0.9c-0.8,0-1.4,0.5-1.8,1.3
		c-0.2,0.5-0.3,1.1-0.3,1.8c0,1,0.2,1.9,0.5,2.7c0.5,1.1,1.2,1.6,2.1,1.6c0.7,0,1.2-0.3,1.6-0.8c0.3-0.5,0.5-1.3,0.5-2.3h-0.3
		c0,1-0.2,1.7-0.5,2.2c-0.3,0.5-0.7,0.7-1.3,0.7c-0.8,0-1.3-0.4-1.8-1.4c-0.3-0.8-0.5-1.6-0.5-2.5c0-0.7,0.1-1.2,0.3-1.6
		c0.3-0.8,0.8-1.1,1.5-1.1c0.6,0,1,0.2,1.4,0.7c0.6,0.8,0.9,1.8,0.9,3.1H257.8L257.8,112.5z M259.4,111.9h-0.2c0,0.7-0.2,1.4-0.5,2
		v0c-0.3,0.7-0.8,1.2-1.3,1.6c-0.6,0.3-1.2,0.5-1.8,0.5c-1.1,0-2-0.4-2.6-1.3c-0.6-0.8-0.8-1.6-0.8-2.5c0-0.7,0.2-1.3,0.5-2
		c0.4-0.7,0.8-1.2,1.3-1.5c0.6-0.3,1.1-0.5,1.7-0.5c1.1,0,2,0.4,2.7,1.3c0.6,0.7,0.9,1.6,0.9,2.5h0.3c0-1-0.3-1.9-0.9-2.7
		c-0.7-0.9-1.7-1.4-2.9-1.4c-0.7,0-1.3,0.2-1.9,0.5c-0.6,0.4-1.1,0.9-1.5,1.6c-0.3,0.7-0.5,1.4-0.5,2.1c0,1,0.3,1.9,0.9,2.7
		c0.7,1,1.7,1.5,2.9,1.5c0.7,0,1.4-0.2,2-0.6c0.6-0.4,1.1-0.9,1.4-1.7v0c0.3-0.7,0.5-1.4,0.5-2.1H259.4L259.4,111.9z"/>
	<path class="st8" d="M273.3,115.9h-3.8v-0.3h0.2c0.6,0,1-0.2,1.1-0.6c0-0.1,0-0.4,0-0.8v-3.3c0-0.6-0.1-1.1-0.2-1.3
		c-0.2-0.4-0.6-0.5-1.1-0.5c-0.6,0-1.2,0.3-2,1.1l0,0.1l0,0.4v3.7c0,0.4,0,0.7,0,0.7c0,0.3,0.2,0.5,0.4,0.6c0.2,0.1,0.4,0.1,0.8,0.1
		v0.3h-3.9v-0.3c0.7,0,1.1-0.2,1.2-0.6c0-0.1,0-0.4,0-0.8v-3.3c0-0.6-0.1-1.1-0.3-1.4c-0.2-0.4-0.6-0.5-1-0.5
		c-0.3,0-0.6,0.1-0.9,0.2c-0.5,0.3-0.8,0.5-1.1,0.8v4.1c0,0.7,0.1,1.2,0.4,1.3c0.1,0.1,0.4,0.1,0.8,0.1v0.3h-3.8v-0.3
		c0.6,0,0.9-0.2,1.1-0.5c0.1-0.2,0.1-0.5,0.1-1v-2.9c0-0.9,0-1.4-0.1-1.6c-0.1-0.3-0.2-0.5-0.5-0.5c-0.2,0-0.3,0-0.6,0.1l-0.1-0.3
		l2.3-0.9h0.4v1.6c0.6-0.6,0.9-0.9,1-1c0.5-0.5,1.1-0.7,1.7-0.7c1.1,0,1.7,0.5,2,1.6c0.4-0.5,0.8-0.9,1.2-1.1c0.5-0.3,1-0.5,1.5-0.5
		c0.9,0,1.5,0.4,1.8,1.3c0.1,0.3,0.2,0.8,0.2,1.5v3.3c0,0.5,0,0.8,0.1,1c0.1,0.3,0.5,0.4,1.1,0.4V115.9L273.3,115.9z"/>
	<path class="st9" d="M273.3,115.9v-0.2h-3.7v-0.2h-0.2v0.2h0.2c0.3,0,0.6-0.1,0.8-0.2c0.2-0.1,0.4-0.3,0.4-0.6v0c0-0.1,0-0.4,0-0.9
		v-3.3c0-0.6-0.1-1.1-0.2-1.4l-0.1,0.1l0.1-0.1c-0.2-0.4-0.7-0.6-1.2-0.6c-0.7,0-1.3,0.4-2.1,1.1l0,0l0,0.1l0,0l0,0.4v3.7
		c0,0.4,0,0.7,0,0.8l0.2,0l-0.2,0c0.1,0.3,0.2,0.5,0.5,0.7l0.1-0.1l-0.1,0.1c0.2,0.1,0.5,0.2,0.9,0.2v-0.2h-0.2v0.2H265v-0.2h-0.2
		v0.2c0.4,0,0.7-0.1,0.9-0.2c0.2-0.1,0.4-0.3,0.5-0.5v0c0-0.1,0-0.4,0-0.9v-3.3c0-0.7-0.1-1.1-0.3-1.4l0,0h0
		c-0.3-0.4-0.7-0.6-1.2-0.6c-0.3,0-0.7,0.1-1,0.3c-0.5,0.3-0.9,0.5-1.1,0.9l0,0v4.2c0,0.7,0.1,1.2,0.5,1.5l0.1-0.1l-0.1,0.1
		c0.2,0.1,0.5,0.1,0.9,0.1v-0.2h-0.2v0.2h-3.5v-0.2h-0.2v0.2c0.3,0,0.6,0,0.8-0.1c0.2-0.1,0.4-0.2,0.5-0.4l0,0l0,0
		c0.1-0.2,0.1-0.5,0.1-1v-2.9c0-0.9,0-1.4-0.1-1.7c0-0.2-0.1-0.3-0.2-0.4c-0.1-0.1-0.3-0.2-0.5-0.2c-0.2,0-0.4,0-0.6,0.1l0.1,0.2
		l0.1-0.1l-0.1-0.2l2.1-0.9h0.2v1.9l0.3-0.3c0.6-0.6,0.9-0.9,1-1l0,0c0.5-0.4,1-0.6,1.6-0.6c0.5,0,0.9,0.1,1.2,0.4
		c0.3,0.2,0.5,0.6,0.6,1.1l0.1,0.3l0.2-0.2c0.4-0.5,0.8-0.9,1.1-1.1c0.4-0.3,0.9-0.5,1.4-0.5c0.8,0,1.3,0.4,1.7,1.2
		c0.1,0.3,0.2,0.8,0.2,1.5v3.3c0,0.5,0,0.8,0.1,1.1v0c0.1,0.2,0.2,0.3,0.5,0.4c0.2,0.1,0.5,0.1,0.8,0.1v-0.2h-0.2v0.3H273.3v-0.2
		V115.9h0.2v-0.5h-0.2c-0.3,0-0.5,0-0.6-0.1c-0.2-0.1-0.2-0.1-0.3-0.3l-0.1,0.1l0.1-0.1c-0.1-0.1-0.1-0.5-0.1-0.9v-3.3
		c0-0.7-0.1-1.2-0.2-1.6c-0.3-0.9-1-1.5-2-1.4c-0.6,0-1.1,0.2-1.6,0.5c-0.3,0.2-0.7,0.6-1.2,1.2l0.1,0.1l0.2,0
		c-0.1-0.6-0.4-1-0.7-1.3c-0.4-0.3-0.8-0.4-1.4-0.4c-0.6,0-1.2,0.2-1.8,0.7l0.1,0.1l-0.1-0.1c-0.1,0.1-0.5,0.4-1,1l0.1,0.1h0.2v-1.8
		h-0.6l-2.5,1l0.2,0.4l0.1,0.1l0.1-0.1c0.2-0.1,0.4-0.1,0.5-0.1c0.1,0,0.2,0,0.2,0.1c0.1,0.1,0.1,0.1,0.1,0.3c0,0.2,0.1,0.8,0.1,1.6
		v2.9c0,0.5,0,0.8-0.1,0.9v0c-0.1,0.1-0.1,0.2-0.3,0.3c-0.2,0.1-0.4,0.1-0.6,0.1h-0.2v0.6h4.1v-0.6h-0.2c-0.4,0-0.7,0-0.8-0.1l0,0
		l0,0c-0.2-0.1-0.3-0.5-0.3-1.2V110h-0.2l0.1,0.1c0.2-0.3,0.6-0.5,1-0.8c0.3-0.2,0.6-0.2,0.8-0.2c0.4,0,0.7,0.1,0.9,0.5h0
		c0.2,0.2,0.3,0.6,0.2,1.3v3.3c0,0.5,0,0.7,0,0.8l0.2,0l-0.2,0c0,0.2-0.1,0.3-0.3,0.4c-0.2,0.1-0.4,0.1-0.7,0.1h-0.2v0.6h4.2v-0.6
		h-0.2c-0.4,0-0.6,0-0.8-0.1l0,0l0,0c-0.2-0.1-0.3-0.2-0.3-0.4h0v0c0,0,0-0.3,0-0.7v-3.7l0-0.4l0-0.1l-0.2,0l0.1,0.1
		c0.7-0.7,1.4-1,1.9-1c0.5,0,0.7,0.2,0.9,0.5l0,0c0.1,0.2,0.2,0.6,0.2,1.2v3.3c0,0.5,0,0.7,0,0.8l0.2,0l-0.2,0
		c0,0.2-0.1,0.3-0.3,0.4c-0.1,0.1-0.4,0.1-0.6,0.1h-0.3v0.6h4.1v-0.2H273.3L273.3,115.9z"/>
	<path class="st8" d="M278.8,110.6c0-0.5-0.1-0.8-0.2-1c-0.3-0.7-0.8-1-1.5-1c-0.5,0-1,0.2-1.3,0.6c-0.3,0.4-0.5,0.9-0.6,1.4H278.8
		L278.8,110.6z M280.6,113.1c-0.1,0.8-0.5,1.5-1,2.1c-0.6,0.6-1.3,0.9-2.1,0.9c-1.1,0-1.9-0.4-2.5-1.2c-0.6-0.7-0.8-1.7-0.8-2.7
		c0-1.2,0.3-2.2,0.9-2.9c0.6-0.8,1.5-1.3,2.7-1.3c0.9,0,1.6,0.3,2.2,0.9c0.5,0.6,0.8,1.3,0.8,2.2h-5.3c0,1,0.2,1.8,0.7,2.5
		c0.5,0.8,1.2,1.2,2.1,1.2c1,0,1.8-0.6,2.2-1.8L280.6,113.1L280.6,113.1z"/>
	<path class="st9" d="M278.8,110.6l0.2,0c0-0.5-0.1-0.9-0.2-1.1c-0.3-0.7-0.9-1.1-1.6-1.1c-0.6,0-1.1,0.2-1.5,0.7
		c-0.3,0.4-0.5,0.9-0.6,1.5l0,0.2h3.9l0-0.2L278.8,110.6v-0.2h-3.6v0.2l0.2,0c0.1-0.5,0.2-1,0.5-1.3h0c0.3-0.4,0.7-0.6,1.2-0.6
		c0.7,0,1.1,0.3,1.4,0.9c0.1,0.2,0.1,0.5,0.2,1L278.8,110.6v-0.2V110.6L278.8,110.6z M280.6,113.1l-0.2,0c-0.1,0.8-0.5,1.5-1,2
		c-0.6,0.6-1.2,0.9-2,0.9c-1,0-1.8-0.4-2.4-1.2l0,0c-0.5-0.7-0.8-1.6-0.8-2.7c0-1.2,0.3-2.1,0.8-2.8c0.6-0.8,1.5-1.2,2.6-1.2
		c0.9,0,1.5,0.3,2.1,0.8l0,0h0c0.5,0.5,0.7,1.2,0.8,2.1h0.2v-0.2h-5.5l0,0.2v0c0,1,0.2,1.8,0.7,2.5c0.5,0.8,1.3,1.3,2.3,1.3
		c1.1,0,1.9-0.7,2.4-1.9l-0.2-0.1l-0.1,0.1l0.3,0.2L280.6,113.1l-0.2,0L280.6,113.1l0.1-0.1l-0.3-0.2l-0.2-0.1l-0.1,0.2
		c-0.5,1.2-1.1,1.7-2.1,1.7c-0.9,0-1.5-0.4-2-1.1c-0.4-0.7-0.6-1.4-0.6-2.3l0,0h-0.2v0.2h5.5v-0.2c0-0.9-0.3-1.7-0.8-2.3l0,0l0,0
		c-0.6-0.6-1.3-1-2.3-0.9c-1.2,0-2.1,0.4-2.8,1.3c-0.6,0.8-0.9,1.8-0.9,3c0,1.1,0.3,2.1,0.9,2.8c0.7,0.9,1.6,1.3,2.6,1.3
		c0.9,0,1.6-0.3,2.2-1c0.6-0.6,0.9-1.3,1.1-2.2l0-0.1l-0.1-0.1L280.6,113.1L280.6,113.1z"/>
	<path class="st8" d="M287.1,113.8c0,0.7-0.3,1.2-0.8,1.7c-0.5,0.4-1.1,0.6-1.8,0.6c-0.5,0-1-0.1-1.6-0.3c-0.2-0.1-0.3-0.1-0.5-0.1
		c-0.1,0-0.2,0.1-0.3,0.2h-0.3v-2.7h0.3c0.1,0.7,0.4,1.2,0.8,1.6c0.4,0.5,1,0.7,1.6,0.7c0.4,0,0.7-0.1,0.9-0.3
		c0.3-0.2,0.4-0.5,0.4-0.9c0-0.5-0.2-0.9-0.7-1.2c-0.2-0.2-0.6-0.4-1.3-0.7c-0.7-0.3-1.1-0.6-1.4-0.9c-0.4-0.4-0.6-0.9-0.6-1.4
		c0-0.7,0.2-1.2,0.7-1.6c0.4-0.4,1-0.6,1.7-0.6c0.3,0,0.7,0.1,1.1,0.2c0.3,0.1,0.5,0.1,0.6,0.1c0.2,0,0.3-0.1,0.4-0.3h0.3v2.6h-0.3
		c-0.2-0.7-0.4-1.2-0.7-1.5c-0.3-0.4-0.8-0.6-1.4-0.6c-0.3,0-0.6,0.1-0.9,0.3c-0.3,0.2-0.4,0.4-0.4,0.8c0,0.6,0.4,1.1,1.3,1.5
		l1.2,0.6C286.6,112.2,287.1,112.9,287.1,113.8L287.1,113.8z"/>
	<path class="st9" d="M287.1,113.8H287c0,0.6-0.2,1.2-0.7,1.6c-0.5,0.4-1,0.6-1.7,0.6c-0.5,0-1-0.1-1.6-0.2
		c-0.2-0.1-0.4-0.1-0.5-0.1c-0.2,0-0.4,0.1-0.4,0.3l0.1,0.1v-0.2h-0.1v-2.4h0.1v-0.2l-0.2,0c0.1,0.7,0.4,1.3,0.8,1.7
		c0.5,0.5,1,0.8,1.7,0.8c0.4,0,0.7-0.1,1-0.3l-0.1-0.1l0.1,0.1c0.3-0.2,0.5-0.6,0.5-1c0-0.5-0.3-1-0.8-1.4h0
		c-0.2-0.2-0.7-0.4-1.3-0.8c-0.7-0.3-1.1-0.6-1.3-0.8c-0.4-0.4-0.5-0.8-0.5-1.3c0-0.6,0.2-1.1,0.6-1.5l0,0l0,0
		c0.4-0.4,0.9-0.6,1.5-0.6c0.3,0,0.6,0.1,1.1,0.2c0.3,0.1,0.5,0.1,0.6,0.1c0.2,0,0.4-0.2,0.5-0.4l-0.1-0.1v0.2h0.1v2.3h-0.1v0.2
		l0.2,0c-0.2-0.7-0.4-1.2-0.7-1.6v0c-0.4-0.5-0.9-0.7-1.6-0.7c-0.4,0-0.7,0.1-1,0.3l0.1,0.1l-0.1-0.1c-0.3,0.2-0.5,0.5-0.5,0.9
		c0,0.7,0.5,1.2,1.4,1.7l1.2,0.6c1.1,0.5,1.6,1.2,1.6,2.1h0.3v0.5c-0.1,0.5-0.4,1-0.8,1.3c-0.5,0.5-1.2,0.7-1.9,0.7
		c-0.5,0-1.1-0.1-1.7-0.3c-0.2-0.1-0.3-0.1-0.4-0.1c-0.1,0-0.1,0-0.2,0.1l0,0.1h-0.6v-3.1h0.6l0,0.1c0.1,0.6,0.4,1.2,0.7,1.6
		c0.4,0.5,0.9,0.7,1.5,0.7c0.3,0,0.6-0.1,0.8-0.3v0c0.2-0.2,0.3-0.4,0.3-0.7c0-0.4-0.2-0.8-0.7-1.1h0c-0.2-0.1-0.6-0.4-1.3-0.7
		c-0.7-0.3-1.1-0.6-1.4-0.9c-0.4-0.4-0.6-0.9-0.6-1.6c0-0.7,0.3-1.3,0.7-1.7l0.1,0.1l-0.1-0.1c0.5-0.4,1.1-0.7,1.8-0.7
		c0.3,0,0.7,0.1,1.1,0.2c0.3,0.1,0.5,0.1,0.5,0.1c0.1,0,0.1,0,0.2-0.2l0-0.1h0.6v2.9h-0.6l0-0.1c-0.2-0.7-0.4-1.1-0.6-1.4v0
		c-0.3-0.4-0.7-0.6-1.3-0.6c-0.3,0-0.6,0.1-0.8,0.2l0,0c-0.3,0.2-0.4,0.4-0.4,0.6c0,0.5,0.4,1,1.2,1.4l1.2,0.6
		c1,0.5,1.6,1.1,1.8,1.9v0.4H287.1L287.1,113.8z"/>
	<path class="st9" d="M107.8,105.3l0.7-0.3c0.2-0.1,0.7-0.3,1.5-0.7h0.4c0.1,0,0.2,0,0.3,0c0,0.2,0,0.3,0,0.3l0,0.4l0,3.3l0,1.3
		c0.2-0.2,0.4-0.4,0.7-0.6c0.1,0,0.2-0.1,0.5-0.2c0.3-0.1,0.5-0.2,0.6-0.2c0.3-0.1,0.5-0.1,0.7-0.1c0.6,0,1,0.1,1.4,0.2
		c0.4,0.1,0.7,0.4,1,0.7c0.3,0.3,0.6,0.7,0.8,1.3c0.1,0.4,0.2,0.8,0.2,1.3c0,0.3-0.1,0.7-0.2,1.1c-0.1,0.4-0.3,0.8-0.6,1.2
		c-0.2,0.3-0.4,0.6-0.8,0.8c-0.3,0.3-0.7,0.5-1.2,0.7c-0.3,0.1-0.8,0.2-1.5,0.2c-0.6,0-1.4-0.2-2.2-0.7c-0.2-0.1-0.4-0.2-0.5-0.3
		c-0.1,0.2-0.2,0.4-0.4,0.6c-0.1,0.2-0.2,0.4-0.3,0.5l-0.4,0c0-0.1,0-0.3,0-0.4c0-0.1,0-0.3,0-0.4l0-0.6l0-0.2c0-0.1,0-0.3,0-0.5
		v-6.4c0-0.6,0-1.1-0.1-1.2c0-0.1,0-0.1-0.1-0.1c0,0-0.3-0.1-0.9-0.4V105.3L107.8,105.3z M110.7,110l0,1.4c0,1.5,0,2.4,0.1,2.7
		c0.1,0.3,0.3,0.6,0.6,0.8c0.3,0.2,0.6,0.3,1,0.3c0.3,0,0.5-0.1,0.8-0.2c0.3-0.1,0.4-0.2,0.6-0.3c0.2-0.2,0.4-0.4,0.5-0.6
		c0.2-0.3,0.3-0.6,0.3-0.9c0.1-0.4,0.1-0.7,0.1-0.9c0-0.5-0.1-0.9-0.3-1.4c-0.2-0.5-0.5-0.8-0.8-1c-0.4-0.2-0.7-0.3-1.1-0.3
		c-0.3,0-0.6,0.1-0.9,0.2C111.1,109.8,110.8,109.9,110.7,110L110.7,110z"/>
	<path class="st9" d="M116.7,108.7c0.2,0,0.4-0.1,0.5-0.1c0.1,0,0.1,0,0.2,0c0.5,0,1,0.1,1.3,0.1h0.5l1.2-0.1c0,0,0.1,0.1,0.1,0.1
		c0,0.3,0,0.4,0,0.5c-0.1,0-0.2,0-0.2,0c-0.1,0-0.2,0-0.3,0.1c-0.1,0-0.1,0-0.2,0c-0.1,0-0.1,0.1-0.1,0.1c0,0.1,0.1,0.3,0.1,0.3
		l0.4,0.9c0.3,0.8,0.7,1.6,1,2.2l0.5,1c0-0.1,0.3-0.6,0.7-1.7c0.5-1.3,0.8-2,0.8-2.1c0-0.1,0-0.2,0-0.2c0-0.1,0-0.2-0.1-0.3
		c-0.1-0.1-0.2-0.2-0.3-0.2c-0.1,0-0.3-0.1-0.6-0.1l-0.3-0.1l0-0.1c0-0.1,0-0.1,0-0.1c0,0,0-0.1,0-0.2c0.2,0,0.3,0,0.4,0l0.7,0
		l0.5,0c0.2,0,0.5,0,1-0.1c0.3,0,0.5-0.1,0.7-0.1c0,0.1,0,0.3,0,0.3c0,0,0,0.1,0,0.2c-0.1,0.1-0.2,0.1-0.3,0.1
		c-0.2,0.1-0.4,0.1-0.5,0.1c-0.1,0.1-0.1,0.1-0.2,0.2c-0.1,0.2-0.3,0.7-0.6,1.4l-0.6,1.7l-1.5,3.5l-1,2.3c-0.2,0.4-0.5,0.8-0.8,1.1
		c-0.1,0.1-0.2,0.2-0.4,0.3c-0.2,0.1-0.5,0.1-0.8,0.1c0,0-0.2,0-0.5-0.1c-0.2-0.1-0.4-0.2-0.6-0.4c-0.1-0.1-0.2-0.3-0.2-0.4
		c0-0.3,0.1-0.6,0.4-0.9c0.2-0.2,0.4-0.2,0.5-0.2c0.3,0,0.6,0.1,0.9,0.4c0.2,0.1,0.3,0.2,0.4,0.2c0.1,0,0.2-0.1,0.2-0.2
		c0.5-1,0.8-1.7,1-2.1l-1.6-3.5c-0.6-1.4-1.1-2.4-1.4-3c-0.2-0.3-0.3-0.5-0.3-0.5c-0.1-0.1-0.2-0.1-0.3-0.1c-0.1,0-0.2-0.1-0.3-0.1
		C116.8,109,116.7,108.9,116.7,108.7L116.7,108.7z"/>
</g>
</svg>
