<?xml version="1.0" encoding="utf-8"?>
<!-- Generator: Adobe Illustrator 21.0.0, SVG Export Plug-In . SVG Version: 6.00 Build 0)  -->
<svg version="1.1" id="Layer_1" xmlns="http://www.w3.org/2000/svg" xmlns:xlink="http://www.w3.org/1999/xlink" x="0px" y="0px"
	 viewBox="0 0 281.3 481.9" style="enable-background:new 0 0 281.3 481.9;" xml:space="preserve">
<style type="text/css">
	.st0{fill:#EFECEA;}
	.st1{fill:#D4EFFC;}
	.st2{fill:#CBE8DD;}
	.st3{fill:#EAD1C1;}
</style>
<g>
	<rect x="11.5" y="177.3" class="st0" width="84.1" height="72"/>
	<rect x="101.3" y="381.3" class="st0" width="34.2" height="28.1"/>
	<rect x="139.4" y="349" class="st0" width="116.9" height="120.7"/>
</g>
<g>
	<polygon class="st1" points="256,204.8 256,183.7 217.5,183.7 217.5,204.8 202.7,204.8 202.7,250.8 267.9,250.8 267.9,204.8 	"/>
	<rect x="181.8" y="95" class="st1" width="74.2" height="31.4"/>
	<rect x="194.7" y="308.9" class="st1" width="65" height="37"/>
</g>
<polygon class="st2" points="217.6,203.9 217.6,183 182.4,183 182.4,171.5 150.6,171.5 150.6,204.5 95.7,204.5 95.7,249.3 
	27.3,249.3 27.3,331.7 97.8,331.7 97.8,352.5 99.4,352.5 99.4,377.8 102.5,377.8 102.5,381.3 121.8,381.3 121.8,377.8 139.3,377.8 
	139.3,346.9 182,346.9 182,345.9 194.6,345.9 194.6,309.1 182,309.1 182,251 201.2,251 201.2,249.7 255.9,249.7 255.9,249.6 
	202.6,249.6 202.6,203.9 "/>
<g>
	<rect x="183.6" y="251" class="st3" width="72.2" height="56.4"/>
	<rect x="27.7" y="333.1" class="st3" width="70.1" height="60.6"/>
	<rect x="183.6" y="128" class="st3" width="72.3" height="55"/>
	<polygon class="st3" points="181.8,94.8 99.7,94.8 99.7,171.4 99.7,171.4 99.7,203.2 149.3,203.2 149.3,171.6 181.8,171.6 	"/>
</g>
</svg>
