<svg id="Layer_1" data-name="Layer 1" xmlns="http://www.w3.org/2000/svg" viewBox="0 0 194.08 48.01"><title>KF_Artboard 2_Logo_3</title><path d="M24.54,14.38a7.59,7.59,0,0,1,1.52,4.88V36.16h2.16V19.07c0-2.67-.68-4.66-2-5.92-1.9-1.8-5.07-2.34-9.23-1.6a28.87,28.87,0,0,0-4,1l-.44.15-.4-.25C9.43,10.8,5.22,10.81,0,12.46v23.7H2.16V13l.79-.17a16,16,0,0,1,3.29-.41,6.43,6.43,0,0,1,5.16,2A7.35,7.35,0,0,1,13,19.26V36.16h2.2V19.07a9.71,9.71,0,0,0-.29-2.44,8.58,8.58,0,0,0-.76-2l-.59-1.08,1.17-.36C19.41,11.79,22.83,12.25,24.54,14.38Z"/><path d="M36.62,34.86a9.42,9.42,0,0,0,3.21,1.34,19.13,19.13,0,0,0,4.25.44,27.68,27.68,0,0,0,8.19-1.34V19.46a13.81,13.81,0,0,0-.36-3.15,6,6,0,0,0-1.28-2.54A6.84,6.84,0,0,0,47.89,12a13.87,13.87,0,0,0-5-.74,12.42,12.42,0,0,0-4.11.6,7.6,7.6,0,0,0-2.68,1.55,5.92,5.92,0,0,0-1.49,2.18,7.2,7.2,0,0,0-.43,1.69h2.06c.29-2,1.59-4.5,6.31-4.5a9.78,9.78,0,0,1,4.09.7A5.68,5.68,0,0,1,49,15.33,5.62,5.62,0,0,1,50,17.76a15.61,15.61,0,0,1,.16,2.09v4.88l-1.39-.58a12.21,12.21,0,0,0-2.89-.81,21.23,21.23,0,0,0-3.17-.23,18,18,0,0,0-3.43.32,8.85,8.85,0,0,0-2.81,1,5,5,0,0,0-2.54,4.64,7.67,7.67,0,0,0,.72,3.48A6,6,0,0,0,36.62,34.86Zm.15-7.9a4.47,4.47,0,0,1,1.57-1.41,7.08,7.08,0,0,1,2.05-.72,11.9,11.9,0,0,1,2.27-.21,14.86,14.86,0,0,1,4.43.61,5.6,5.6,0,0,1,2.81,1.58l.21.27v7.63l-.76.19a19.31,19.31,0,0,1-4.64.62,11.27,11.27,0,0,1-6.06-1.45,5.39,5.39,0,0,1-2.52-4.88A3.88,3.88,0,0,1,36.77,27Z"/><path d="M74.53,33.88a7.86,7.86,0,0,0,1.12-3.17,30.74,30.74,0,0,0,.28-4.31V19.26c0-2.7-.7-4.73-2.08-6-2.6-2.46-7.46-2.64-13.68-.54l-1.69.67V47.87h2.16V35l1.43.68a9.18,9.18,0,0,0,2.16.68,15.7,15.7,0,0,0,3,.25A12.38,12.38,0,0,0,72,35.88,5.49,5.49,0,0,0,74.53,33.88Zm-.8-7.57c0,1.16,0,2.24-.1,3.2a7.85,7.85,0,0,1-.71,2.86,4.59,4.59,0,0,1-2.08,2.12,7.86,7.86,0,0,1-3.64.7,8.61,8.61,0,0,1-3.43-.57,4.7,4.7,0,0,1-2.12-1.71,5.69,5.69,0,0,1-.87-2.45,21.2,21.2,0,0,1-.15-2.62V13.76l.67-.23c5.16-1.8,8.92-1.4,10.82.84a7.35,7.35,0,0,1,1.61,4.9Z"/><path d="M102.26,27.09a13,13,0,0,1-.66,4.23,9.06,9.06,0,0,1-2,3.35,9.28,9.28,0,0,1-3.4,2.22,13.22,13.22,0,0,1-4.84.81,13.53,13.53,0,0,1-3.57-.44V47.87H80.45V12A12.44,12.44,0,0,1,85,10a23.75,23.75,0,0,1,5.13-.56,16.51,16.51,0,0,1,5.35.78,10.59,10.59,0,0,1,3.76,2.15,9.07,9.07,0,0,1,2.25,3.15,9.6,9.6,0,0,1,.76,3.79Zm-7.33-7.58a3.87,3.87,0,0,0-1.22-3.3,5,5,0,0,0-3-.9,12,12,0,0,0-2.88.39V27.43a4.62,4.62,0,0,0,.83,3,3.37,3.37,0,0,0,2.74,1,3.08,3.08,0,0,0,2.79-1.12,6.18,6.18,0,0,0,.78-3.23Z"/><path d="M127.68,25.57H113.36q0,1,0,2.22a7.48,7.48,0,0,0,.42,2.22A4,4,0,0,0,115,31.73a3.32,3.32,0,0,0,2.25.68,4,4,0,0,0,1.66-.29,3.28,3.28,0,0,0,1-.71,3,3,0,0,0,.59-.88q.19-.46.34-.86h6.75a11.28,11.28,0,0,1-.93,3.28,7.19,7.19,0,0,1-1.91,2.49A8.31,8.31,0,0,1,121.67,37a16.15,16.15,0,0,1-4.45.54,11.22,11.22,0,0,1-5-1,9.31,9.31,0,0,1-3.35-2.69A10.93,10.93,0,0,1,107,30a16.85,16.85,0,0,1-.59-4.45v-6a12.22,12.22,0,0,1,.66-4.11,8.64,8.64,0,0,1,2-3.2,8.8,8.8,0,0,1,3.35-2.08,14.2,14.2,0,0,1,4.82-.73,12,12,0,0,1,5.11,1A8.54,8.54,0,0,1,125.56,13a9.23,9.23,0,0,1,1.66,3.67,20.12,20.12,0,0,1,.46,4.35Zm-6.55-5.18q0-.93-.07-1.93a5.76,5.76,0,0,0-.44-1.86,3.35,3.35,0,0,0-1.15-1.42,3.83,3.83,0,0,0-2.25-.56,3.41,3.41,0,0,0-3,1.25,6.36,6.36,0,0,0-.9,3.74V21h7.77Z"/><path d="M150.13,10.27l-3.37,6.65h-4a9,9,0,0,0-1.47.12,3.13,3.13,0,0,0-1.27.49,2.73,2.73,0,0,0-.88,1,3.9,3.9,0,0,0-.34,1.78V37.16h-7.38V20.34a10.17,10.17,0,0,1,.73-3.86,8.59,8.59,0,0,1,2.25-3.18,11.09,11.09,0,0,1,3.81-2.18,17.27,17.27,0,0,1,5.43-.86h6.45Z"/><path d="M159.86,16.87V27.18a3.23,3.23,0,0,0,.51,1.93,3.72,3.72,0,0,0,1.22,1.1,4.51,4.51,0,0,0,1.52.51,9.42,9.42,0,0,0,1.39.12,4,4,0,0,0,1.27-.15v6.5a1.4,1.4,0,0,1-.64.17l-.88,0a14.6,14.6,0,0,1-5.26-.86,10.51,10.51,0,0,1-3.67-2.27A8.86,8.86,0,0,1,153.21,31a10.87,10.87,0,0,1-.68-3.84V0h7.33V10.27h6.5L163,16.87Z"/><path d="M194.08,10.27l-9,26.5q-.83,2.3-1.66,4.35a15,15,0,0,1-2,3.59,8.54,8.54,0,0,1-3,2.42,9.94,9.94,0,0,1-4.45.88V42a2.81,2.81,0,0,0,1.56-.42,3.84,3.84,0,0,0,1.1-1.12,8.59,8.59,0,0,0,.81-1.59q.34-.88.73-1.76L168.9,10.27h7.72l4.79,17.65.54-1.56,4.35-16.09Z"/></svg>